<?xml version="1.0"?>
<svg version="1.1" xmlns="http://www.w3.org/2000/svg" 
     width="400" height="200" style="border: dashed 2px #aaa"><path fill="#ffffff" d="M34.08,107.2l0,4.4l-8.08,0l0,7.6l7.16,0l0.92-3.28l3.6,0l0,8.08l-20.88,0l0-3.4l3-1.2l0-18.8l-3-1.2l0-3.4l9.2-0.2l11.2,0l0,7.72l-3.6,0l-1-2.92l-6.6,0l0,6.6l8.08,0z M57.7004,124l-0.72-2.6s-3.08,3-6.48,3c-3.88,0-6.24-2.28-6.24-6.28c0-4.72,3.56-6.6,9.64-6.6l2.8,0l0-2.2c0-2.04-1.08-2.92-3.08-2.92c-2.04,0-3.52,0.6-3.52,0.6l-0.6,2.52l-3.6,0l-0.28-5.92s4.84-1.6,8.68-1.6c6.08,0,8.4,2.12,8.4,7.92l0,9.88l3,0.72l0,3.2z M56.7004,114.92l-2.28,0c-3.12,0-4.36,0.8-4.36,2.6c0,1.52,0.84,2.4,2.36,2.4c2.12,0,4.28-2.32,4.28-2.32l0-2.68z M79.2808,102.4l0.36,2.76s2.88-3.16,5.56-3.16c2.2,0,3.72,0.72,3.72,0.72l-0.32,7.68l-3.6,0l-0.6-3.4c-2.32,0-4.32,2.24-4.32,2.24l0,10.56l4,1l0,3.2l-13.2,0l0-3.2l3.2-1l0-13l-3.2-1l0-3.2z M101.9412,119.8l3.6,1l0,3.2l-12.84,0l0-3.2l3.2-1l0-22.48l-3.2-0.8l0-3.2l9.24-0.32l0,26.8z M123.9216,95.32c8,0,12.6,5.28,12.6,14.2c0,9-5.4,15-13.4,15s-12.4-5-12.4-14.4c0-9.2,5.08-14.8,13.2-14.8z M123.7216,100.32c-4,0-6.2,2.48-6.2,9.6c0,6.6,1.8,9.6,5.8,9.6s6.4-2.6,6.4-9.8c0-6.6-2-9.4-6-9.4z M151.382,102.4l0.28,2.76s3.8-3.08,7.36-3.08c3.88,0,6.08,2.76,6.08,7.12l0,10.6l2.8,1l0,3.2l-11,0l0-3.2l2.2-1l0-9.52c0-1.84-1.04-3.2-2.72-3.2c-2.48,0-4.28,2.28-4.28,2.28l0,10.44l2.2,1l0,3.2l-11.4,0l0-3.2l3.2-1l0-13l-3.2-1l0-3.2z"/><path fill="#ebd9b7" d="M176.6824,91.0380859375q0-0.314453125,0.43798828125-0.48291015625t0.57275390625-0.16845703125l0.8310546875-0.134765625q0.8310546875-0.134765625,1.6845703125-0.23583984375t1.662109375-0.19091796875q2.8525390625-0.359375,5.705078125-0.70751953125t5.75-0.34814453125q0.224609375,0,0.61767578125,0.0224609375t0.7861328125,0.12353515625t0.673828125,0.28076171875t0.28076171875,0.494140625q0,0.224609375-0.21337890625,0.39306640625t-0.50537109375,0.25830078125t-0.59521484375,0.1123046875t-0.48291015625,0.0224609375l-0.39306640625,0t-0.39306640625-0.08984375q-1.1904296875,0-2.34716796875,0.1123046875t-2.34716796875,0.2021484375q0.314453125,0.359375,0.3369140625,1.0107421875t0.044921875,1.123046875q0,7.951171875,0.1123046875,15.8125t0.2021484375,15.8798828125l0,0.044921875q-0.7412109375,0.6513671875-1.26904296875,0.8310546875t-1.06689453125,0.1796875q-0.5166015625,0-1.04443359375-0.19091796875t-1.26904296875-0.81982421875l0-0.044921875l0.1796875-17.6318359375q0-1.751953125-0.044921875-3.86328125t-0.044921875-4.27880859375t0.0673828125-4.18896484375t0.359375-3.5263671875q-1.3251953125,0.134765625-2.8076171875,0.404296875q-1.2802734375,0.224609375-2.4482421875,0.224609375l-0.404296875,0q-0.08984375,0-0.52783203125,0.0224609375t-0.8984375-0.0224609375t-0.8310546875-0.1796875t-0.37060546875-0.44921875z M198.88885507813,117.0703125l0-2.111328125q0-1.1455078125,0.05615234375-3.24560546875t0.14599609375-4.6044921875t0.2470703125-5.22216796875t0.359375-5.13232421875t0.48291015625-4.32373046875t0.64013671875-2.830078125q0.224609375-0.5166015625,0.7412109375-0.6513671875t1.0107421875-0.134765625q0.7861328125,0,1.38134765625,0.34814453125t0.59521484375,1.26904296875l-0.404296875,0.44921875q-0.7861328125,5.1884765625-1.0107421875,10.421875t-0.314453125,10.466796875q0.5615234375-0.8759765625,1.26904296875-1.71826171875t1.572265625-1.49365234375t1.8642578125-1.04443359375t2.18994140625-0.39306640625q1.52734375,0,2.52685546875,0.9208984375t1.65087890625,2.39208984375t0.9658203125,3.29052734375t0.48291015625,3.638671875t0.23583984375,3.44775390625t0.2021484375,2.70654296875q-0.4267578125,0.583984375-1.2578125,0.583984375l-0.0673828125,0q-0.359375,0-0.7861328125-0.08984375t-0.5615234375-0.44921875l0.044921875,0.044921875q-0.314453125-0.6962890625-0.4267578125-2.01025390625t-0.1796875-2.8974609375t-0.23583984375-3.24560546875t-0.50537109375-3.009765625t-0.98828125-2.2236328125t-1.751953125-0.9208984375l-0.134765625,0q-1.3251953125,0-2.2236328125,0.80859375q-0.943359375,0.853515625-1.52734375,2.24609375t-0.8984375,3.099609375t-0.48291015625,3.29052734375t-0.25830078125,2.875t-0.224609375,1.89794921875q-0.134765625,0.5166015625-0.79736328125,0.68505859375t-1.13427734375,0.16845703125q-1.1005859375,0-1.796875-0.62890625q-0.5166015625-1.2353515625-0.6064453125-3.0771484375t-0.08984375-3.59375z M220.37656015625,115.54296875q0-1.572265625,0.34814453125-3.7060546875t1.17919921875-4.04296875t2.18994140625-3.24560546875t3.42529296875-1.33642578125q1.931640625,0,2.8974609375,1.11181640625t0.9658203125,2.99853515625q0,1.2353515625-0.46044921875,2.70654296875t-1.31396484375,2.78515625t-2.021484375,2.18994140625t-2.60546875,0.8759765625l-0.583984375-0.044921875q0,0.6064453125,0.1796875,1.62841796875t0.52783203125,2.03271484375t0.8984375,1.7744140625t1.33642578125,0.763671875q1.1455078125,0,2.201171875-0.9208984375t1.9990234375-2.0439453125t1.751953125-2.0439453125t1.482421875-0.9208984375q0.359375,0,0.7412109375,0.1123046875t0.4267578125,0.62890625q0,0.314453125-0.16845703125,0.5166015625t-0.30322265625,0.44921875q-0.6962890625,1.1904296875-1.51611328125,2.2685546875t-1.85302734375,1.9541015625t-2.25732421875,1.38134765625t-2.70654296875,0.50537109375q-1.931640625,0-3.2119140625-0.68505859375t-2.06640625-1.841796875t-1.13427734375-2.6728515625t-0.34814453125-3.17822265625z M224.39706796875,113.8359375l0.62890625,0.5615234375q0.44921875,0.404296875,0.8984375,0.1796875t0.80859375-0.81982421875t0.66259765625-1.47119140625t0.5390625-1.796875t0.34814453125-1.796875t0.1123046875-1.4599609375l0-0.763671875t-0.0673828125-0.80859375t-0.23583984375-0.64013671875t-0.52783203125-0.32568359375q-0.1123046875-0.0224609375-0.2021484375-0.0224609375q-0.763671875,0-1.302734375,0.9658203125q-0.583984375,1.078125-0.943359375,2.61669921875t-0.5166015625,3.15576171875t-0.2021484375,2.42578125z M239.14649179688,118.732421875q0-0.7861328125,0.5390625-0.99951171875t1.16796875-0.21337890625q1.1005859375,0,1.8642578125,0.98828125t1.44873046875,2.16748046875t1.35888671875,2.16748046875t1.5947265625,0.98828125q0.6962890625,0,1.26904296875-0.34814453125t0.98828125-0.8759765625t0.64013671875-1.1904296875t0.224609375-1.31396484375q0-1.70703125-0.68505859375-3.5263671875t-1.751953125-3.7509765625t-2.25732421875-3.953125t-2.24609375-4.1103515625t-1.751953125-4.25634765625t-0.6962890625-4.36865234375q0-3.3017578125,1.9765625-5.12109375t5.2109375-1.8193359375q1.1005859375,0,2.2236328125,0.314453125t2.06640625,0.943359375t1.53857421875,1.5498046875t0.59521484375,2.15625q0,0.404296875-0.59521484375,0.52783203125t-0.86474609375,0.12353515625q-0.404296875,0-0.8759765625-0.10107421875t-0.6064453125-0.55029296875t-0.3818359375-1.033203125t-0.61767578125-1.08935546875t-0.8759765625-0.8759765625t-1.11181640625-0.37060546875q-1.0107421875,0-1.71826171875,0.41552734375t-1.1455078125,1.11181640625t-0.6513671875,1.56103515625t-0.21337890625,1.78564453125q0,2.15625,0.7412109375,4.34619140625t1.841796875,4.357421875t2.39208984375,4.27880859375t2.39208984375,4.1103515625t1.841796875,3.908203125t0.7412109375,3.6162109375q0,1.52734375-0.71875,2.5830078125t-1.8193359375,1.71826171875t-2.43701171875,0.9658203125t-2.61669921875,0.30322265625q-1.3701171875,0-2.8076171875-0.55029296875t-2.5830078125-1.51611328125t-1.88671875-2.25732421875t-0.7412109375-2.79638671875z M258.433025,100.359375q0-0.314453125,0.673828125-0.5390625t1.52734375-0.37060546875t1.65087890625-0.21337890625t1.08935546875-0.1123046875q0-0.6064453125,0.044921875-1.22412109375t0.2470703125-1.1005859375t0.64013671875-0.77490234375t1.22412109375-0.2919921875q0.6513671875,0,0.98828125,0.1572265625t0.71875,0.6513671875q0.08984375,0.26953125,0.08984375,0.5166015625l0,0.75244140625t-0.044921875,0.77490234375q0.8310546875-0.08984375,1.65087890625-0.21337890625t1.65087890625-0.12353515625q0.6064453125,0,0.8310546875,0.0224609375t0.44921875,0.5390625q0.1796875,0.5166015625-0.43798828125,0.7861328125t-1.482421875,0.404296875t-1.71826171875,0.2021484375t-1.033203125,0.0673828125q-0.26953125,3.86328125-0.55029296875,7.6591796875t-0.28076171875,7.7041015625q0,1.751953125,0.1123046875,3.6162109375t0.62890625,3.5263671875q0.134765625,0.5166015625,0.44921875,0.9658203125t0.314453125,0.9658203125q0,0.314453125-0.2470703125,0.494140625t-0.59521484375,0.30322265625t-0.6962890625,0.14599609375t-0.57275390625,0.0224609375q-1.4150390625,0-2.15625-1.0556640625t-1.06689453125-2.52685546875t-0.34814453125-3.02099609375t-0.0224609375-2.515625q0-1.9765625,0.07861328125-4.04296875t0.19091796875-4.087890625t0.314453125-3.953125t0.4716796875-3.59375q-0.7861328125,0.08984375-1.53857421875,0.2021484375t-1.53857421875,0.1123046875q-0.1796875,0-0.48291015625-0.0224609375t-0.57275390625-0.1123046875t-0.46044921875-0.2470703125t-0.19091796875-0.44921875z M275.15901132813,115.048828125q0-1.2802734375,0.32568359375-2.63916015625t1.033203125-2.4482421875t1.78564453125-1.7744140625t2.60546875-0.68505859375q1.1455078125,0,2.41455078125,0.39306640625t2.32470703125,1.123046875t1.71826171875,1.78564453125t0.66259765625,2.3583984375q0,1.572265625-0.57275390625,2.9873046875t-1.60595703125,2.52685546875t-2.41455078125,1.751953125t-2.99853515625,0.64013671875q-1.3251953125,0-2.3134765625-0.48291015625t-1.65087890625-1.29150390625t-0.98828125-1.9091796875t-0.32568359375-2.3359375z M278.46076914063,115.00390625q0,0.404296875,0.12353515625,1.1904296875t0.37060546875,1.53857421875t0.64013671875,1.302734375t0.95458984375,0.50537109375q1.1904296875-0.134765625,1.96533203125-0.77490234375t1.2578125-1.56103515625t0.673828125-1.9990234375t0.19091796875-2.0439453125q0-1.2353515625-0.48291015625-2.06640625t-1.58349609375-1.34765625q0,0.044921875,0.044921875,0.044921875t0.044921875-0.044921875l-0.5615234375-0.134765625q-0.224609375-0.08984375-0.55029296875-0.2021484375t-0.64013671875-0.494140625q-0.8759765625,0.314453125-1.35888671875,0.80859375t-0.72998046875,1.20166015625t-0.30322265625,1.69580078125t-0.05615234375,2.380859375z M291.25609140625,106.2666015625q0-0.1796875,0.21337890625-0.32568359375t0.48291015625-0.21337890625t0.55029296875-0.08984375t0.41552734375-0.0224609375q1.0107421875,0,1.7294921875,0.8984375t1.24658203125,2.30224609375t0.8984375,3.099609375t0.70751953125,3.38037109375t0.66259765625,3.08837890625t0.72998046875,2.16748046875q0.6962890625-1.3701171875,1.26904296875-3.3017578125t1.0556640625-3.998046875t0.853515625-4.07666015625t0.59521484375-3.51513671875q0.08984375-0.404296875,0.5615234375-0.50537109375t0.7861328125-0.10107421875q0.5166015625,0,0.8984375,0.14599609375t0.3818359375,0.64013671875q0,0.8310546875-0.2021484375,2.25732421875t-0.55029296875,3.20068359375t-0.80859375,3.638671875t-0.98828125,3.53759765625t-1.1005859375,2.96484375t-1.13427734375,1.83056640625q-0.26953125,0.314453125-0.84228515625,0.43798828125t-0.95458984375,0.12353515625q-1.3251953125,0-2.201171875-0.6962890625l0,0.044921875q-1.3701171875-1.2802734375-2.021484375-3.1220703125t-0.943359375-3.8408203125t-0.52783203125-3.9755859375t-0.79736328125-3.59375q-0.08984375-0.1796875-0.224609375-0.52783203125t-0.314453125-0.6962890625t-0.30322265625-0.66259765625t-0.12353515625-0.494140625z M308.97035898437,115.54296875q0-1.572265625,0.34814453125-3.7060546875t1.17919921875-4.04296875t2.18994140625-3.24560546875t3.42529296875-1.33642578125q1.931640625,0,2.8974609375,1.11181640625t0.9658203125,2.99853515625q0,1.2353515625-0.46044921875,2.70654296875t-1.31396484375,2.78515625t-2.021484375,2.18994140625t-2.60546875,0.8759765625l-0.583984375-0.044921875q0,0.6064453125,0.1796875,1.62841796875t0.52783203125,2.03271484375t0.8984375,1.7744140625t1.33642578125,0.763671875q1.1455078125,0,2.201171875-0.9208984375t1.9990234375-2.0439453125t1.751953125-2.0439453125t1.482421875-0.9208984375q0.359375,0,0.7412109375,0.1123046875t0.4267578125,0.62890625q0,0.314453125-0.16845703125,0.5166015625t-0.30322265625,0.44921875q-0.6962890625,1.1904296875-1.51611328125,2.2685546875t-1.85302734375,1.9541015625t-2.25732421875,1.38134765625t-2.70654296875,0.50537109375q-1.931640625,0-3.2119140625-0.68505859375t-2.06640625-1.841796875t-1.13427734375-2.6728515625t-0.34814453125-3.17822265625z M312.99086679687,113.8359375l0.62890625,0.5615234375q0.44921875,0.404296875,0.8984375,0.1796875t0.80859375-0.81982421875t0.66259765625-1.47119140625t0.5390625-1.796875t0.34814453125-1.796875t0.1123046875-1.4599609375l0-0.763671875t-0.0673828125-0.80859375t-0.23583984375-0.64013671875t-0.52783203125-0.32568359375q-0.1123046875-0.0224609375-0.2021484375-0.0224609375q-0.763671875,0-1.302734375,0.9658203125q-0.583984375,1.078125-0.943359375,2.61669921875t-0.5166015625,3.15576171875t-0.2021484375,2.42578125z"/></svg>
